# This file uses meters as units for non-parametric coordinates.

mtllib Porta_integra_passato.mtl
g default
v -537.283325 -1.181333 343.693390
v -537.283325 14.791212 356.072235
v -482.876648 -1.181333 343.693390
v -482.876648 14.791212 356.072235
v -537.283325 499.427765 218.421432
v -537.283325 487.048920 234.393982
v -482.876648 499.427765 218.421432
v -482.876648 487.048920 234.393982
v -537.283325 487.048920 -137.253174
v -537.283325 499.427765 -121.280624
v -482.876648 487.048920 -137.253174
v -482.876648 499.427765 -121.280624
v -537.283325 -1.181333 -246.552597
v -537.283325 14.791212 -258.931427
v -482.876648 -1.181333 -246.552597
v -482.876648 14.791212 -258.931427
vt 0.375000 0.007974
vt 0.625000 0.007977
vt 0.625000 0.243818
vt 0.375000 0.243818
vt 0.375000 0.258749
vt 0.625000 0.258749
vt 0.625000 0.491251
vt 0.375000 0.491251
vt 0.375000 0.506180
vt 0.625000 0.506182
vt 0.625000 0.742023
vt 0.375000 0.742023
vt 0.375000 0.756616
vt 0.625000 0.756616
vt 0.625000 0.993384
vt 0.375000 0.993384
vt 0.631616 -0.000000
vt 0.868384 -0.000000
vt 0.875000 0.007977
vt 0.875000 0.243818
vt 0.866251 0.250000
vt 0.633749 0.250000
vt 0.125000 0.007977
vt 0.131616 -0.000000
vt 0.368384 -0.000000
vt 0.366251 0.250000
vt 0.133749 0.250000
vt 0.125000 0.243818
vn 0.000000 0.249504 0.968374
vn 0.000000 0.249504 0.968374
vn 0.000000 0.249504 0.968374
vn 0.000000 0.249504 0.968374
vn 0.000000 1.000000 0.000000
vn 0.000000 1.000000 0.000000
vn 0.000000 1.000000 0.000000
vn 0.000000 1.000000 0.000000
vn 0.000000 0.249504 -0.968374
vn 0.000000 0.249504 -0.968374
vn 0.000000 0.249504 -0.968374
vn 0.000000 0.249504 -0.968374
vn 0.000000 -1.000000 0.000000
vn 0.000000 -1.000000 0.000000
vn 0.000000 -1.000000 0.000000
vn 0.000000 -1.000000 0.000000
vn 1.000000 -0.000000 0.000000
vn 1.000000 -0.000000 0.000000
vn 1.000000 -0.000000 0.000000
vn 1.000000 -0.000000 0.000000
vn 1.000000 -0.000000 0.000000
vn 1.000000 -0.000000 0.000000
vn 1.000000 -0.000000 0.000000
vn 1.000000 -0.000000 0.000000
vn -1.000000 -0.000000 0.000000
vn -1.000000 -0.000000 0.000000
vn -1.000000 -0.000000 0.000000
vn -1.000000 -0.000000 0.000000
vn -1.000000 -0.000000 0.000000
vn -1.000000 -0.000000 0.000000
vn -1.000000 -0.000000 0.000000
vn -1.000000 -0.000000 0.000000
vn 0.000000 -0.612576 0.790412
vn 0.000000 -0.612576 0.790412
vn 0.000000 -0.612576 0.790412
vn 0.000000 -0.612576 0.790412
vn 0.000000 0.790412 0.612576
vn 0.000000 0.790412 0.612576
vn 0.000000 0.790412 0.612576
vn 0.000000 0.790412 0.612576
vn 0.000000 0.790412 -0.612576
vn 0.000000 0.790412 -0.612576
vn 0.000000 0.790412 -0.612576
vn 0.000000 0.790412 -0.612576
vn 0.000000 -0.612575 -0.790412
vn 0.000000 -0.612575 -0.790412
vn 0.000000 -0.612575 -0.790412
vn 0.000000 -0.612575 -0.790412
s off
g polySurface4 Porta_integra_passato:pCube5
usemtl initialShadingGroup
f 2/1/1 4/2/2 8/3/3 6/4/4
f 5/5/5 7/6/6 12/7/7 10/8/8
f 9/9/9 11/10/10 16/11/11 14/12/12
f 13/13/13 15/14/14 3/15/15 1/16/16
f 4/2/17 3/17/18 15/18/19 16/19/20 11/20/21 12/21/22 7/22/23 8/3/24
f 14/23/25 13/24/26 1/25/27 2/1/28 6/4/29 5/26/30 10/27/31 9/28/32
f 2/1/33 1/25/34 3/17/35 4/2/36
f 5/5/37 6/4/38 8/3/39 7/6/40
f 9/9/41 10/8/42 12/7/43 11/10/44
f 13/13/45 14/12/46 16/11/47 15/14/48
