# This file uses meters as units for non-parametric coordinates.

mtllib Porta_distrutta_presente.mtl
g default
v 288.227600 -1.181333 360.187592
v 342.634552 -1.181333 360.187592
v 288.227600 -1.181333 -263.046783
v 342.634552 -1.181333 -263.046783
v 288.227600 437.966766 85.111916
v 288.227600 346.539734 267.157166
v 288.227600 419.746063 243.847565
v 342.634552 437.966766 85.111916
v 342.634552 346.539734 267.157166
v 288.227600 438.646454 215.207458
v 288.227600 429.743256 125.222771
v 342.634552 438.646454 215.207458
v 342.634552 429.743256 125.222771
v 288.227600 499.427979 -90.232971
v 288.227600 494.052307 -114.298706
v 288.227600 478.946777 -133.789368
v 288.227600 456.983429 -144.999634
v 342.634552 499.427979 -90.232971
v 342.634552 456.983429 -144.999634
v 342.634552 478.946777 -133.789368
v 342.634552 494.052307 -114.298706
v 342.634552 423.525726 238.120087
v 335.974243 419.746063 243.847565
v 342.634552 409.237396 247.193588
v 342.634552 338.246460 207.939270
v 342.634552 329.953674 219.134613
v 342.634552 214.818680 40.719463
v 342.634552 200.350143 43.547932
v 342.634552 235.614105 -40.810219
v 342.634552 220.385437 -35.001629
v 342.634552 171.247314 -68.064415
v 342.634552 155.594421 -94.651794
v 342.634552 179.953644 -78.261589
v 330.596252 416.833649 238.120087
v 330.596222 404.557892 247.193588
v 330.596252 329.017487 219.134613
v 330.596252 336.142181 207.939270
v 330.596222 206.539917 43.547932
v 330.596222 218.970490 40.719463
v 330.596222 218.963181 -35.001629
v 330.596252 232.046844 -40.810219
v 330.596222 173.181778 -68.064415
v 330.596222 180.661774 -78.261589
v 330.596222 157.253784 -94.651794
v 342.634552 431.415649 117.065544
vt 0.375000 0.000000
vt 0.625000 0.000000
vt 0.625000 0.179350
vt 0.375000 0.179350
vt 0.375000 0.349990
vt 0.625000 0.349990
vt 0.375000 0.470001
vt 0.625000 0.470001
vt 0.375000 0.521194
vt 0.625000 0.521197
vt 0.625000 0.750000
vt 0.375000 0.750000
vt 0.625000 1.000000
vt 0.375000 1.000000
vt 0.625000 0.299990
vt 0.625000 0.310158
vt 0.375000 0.299990
vt 0.601861 0.232339
vt 0.398139 0.232339
vt 0.583345 0.218207
vt 0.559445 0.214675
vt 0.421283 0.214675
vt 0.585361 0.209604
vt 0.375000 0.504130
vt 0.625000 0.504131
vt 0.375000 0.487065
vt 0.625000 0.487066
vt 0.125000 0.000000
vt 0.325010 0.250000
vt 0.275010 0.250000
vt 0.154999 0.250000
vt 0.144999 0.242935
vt 0.135000 0.235869
vt 0.125000 0.228804
vt 0.583345 0.218207
vt 0.585361 0.209604
vt 0.634741 0.170219
vt 0.638155 0.175909
vt 0.725493 0.105649
vt 0.726411 0.112172
vt 0.752237 0.123152
vt 0.756329 0.131047
vt 0.771834 0.095963
vt 0.765922 0.091722
vt 0.855001 0.242935
vt 0.756329 0.131047
vt 0.771834 0.095963
vt 0.875000 0.000000
vt 0.779389 0.083395
vt 0.779389 0.083395
vt 0.634741 0.170219
vt 0.638155 0.175909
vt 0.725493 0.105649
vt 0.726411 0.112172
vt 0.752237 0.123152
vt 0.765922 0.091722
vt 0.865000 0.235869
vt 0.875000 0.228804
vt 0.724990 0.250000
vt 0.845001 0.250000
vt 0.685158 0.250000
vt 0.674990 0.250000
vn 0.000000 0.258453 0.966024
vn 0.000000 0.258453 0.966024
vn 0.000000 0.262239 0.965003
vn 0.000000 0.262058 0.965052
vn 0.000000 0.951037 0.309078
vn 0.000000 0.950168 0.311739
vn 0.000000 0.975208 0.221288
vn 0.000000 0.975208 0.221288
vn 0.000000 0.950168 0.311739
vn 0.000000 0.975208 0.221288
vn 0.000000 0.259959 -0.965620
vn 0.000000 0.259959 -0.965620
vn 0.000000 0.249504 -0.968374
vn 0.000000 0.249504 -0.968374
vn 0.000000 -1.000000 0.000000
vn 0.000000 -1.000000 0.000000
vn 0.000000 -1.000000 0.000000
vn 0.000000 -1.000000 0.000000
vn 0.000000 0.997297 -0.073478
vn 0.000000 0.979624 0.200842
vn -0.000000 0.999947 -0.010338
vn -0.000000 0.999947 -0.010338
vn 0.000000 0.979624 0.200842
vn 0.000000 0.951037 0.309078
vn 0.000000 0.951037 0.309078
vn 0.000000 0.979624 0.200842
vn 0.000000 0.950168 0.311739
vn 0.000000 0.998487 0.054989
vn 0.000000 0.998512 0.054527
vn 0.000001 0.834637 0.550800
vn 0.000001 0.834637 0.550800
vn 0.000000 0.998512 0.054527
vn 0.011964 0.480889 0.876700
vn 0.000000 0.998512 0.054527
vn 0.000000 0.491264 0.871011
vn 0.011964 0.480889 0.876700
vn 0.000000 0.262239 0.965003
vn 0.006267 0.306998 0.951689
vn 0.000000 0.262058 0.965052
vn 0.000000 0.491264 0.871011
vn 0.000000 0.262058 0.965052
vn 0.011964 0.480889 0.876700
vn 0.000000 0.262058 0.965052
vn 0.006267 0.306998 0.951689
vn 0.011964 0.480889 0.876700
vn -0.000000 0.999947 -0.010338
vn 0.000000 0.998512 0.054527
vn 0.000000 0.997297 -0.073478
vn 0.000000 0.997297 -0.073478
vn 0.000000 0.998512 0.054527
vn 0.000000 0.998487 0.054989
vn 0.000000 0.259959 -0.965620
vn 0.000000 0.637854 -0.770157
vn 0.000000 0.637854 -0.770157
vn 0.000000 0.259959 -0.965620
vn 0.000000 0.637854 -0.770157
vn 0.000000 0.904946 -0.425526
vn 0.000000 0.904946 -0.425526
vn 0.000000 0.637854 -0.770157
vn 0.000000 0.904946 -0.425526
vn 0.000000 0.975208 0.221288
vn 0.000000 0.975208 0.221288
vn 0.000000 0.904946 -0.425526
vn -1.000000 0.000000 0.000000
vn -1.000000 0.000000 0.000000
vn -1.000000 0.000000 0.000000
vn -1.000000 0.000000 0.000000
vn -1.000000 0.000000 0.000000
vn -1.000000 0.000000 0.000000
vn -1.000000 0.000000 0.000000
vn -1.000000 0.000000 0.000000
vn -1.000000 0.000000 0.000000
vn -1.000000 0.000000 0.000000
vn -1.000000 0.000000 0.000000
vn -1.000000 0.000001 0.000000
vn -1.000000 0.000000 0.000000
vn -1.000000 0.000000 0.000000
vn -1.000000 0.000000 0.000000
vn -1.000000 0.000000 0.000000
vn -1.000000 0.000000 0.000000
vn -1.000000 0.000000 0.000000
vn -1.000000 0.000000 0.000000
vn -1.000000 0.000000 0.000000
vn -1.000000 0.000000 0.000000
vn -1.000000 0.000000 0.000000
vn -1.000000 0.000000 0.000000
vn 1.000000 0.000000 0.000001
vn 1.000000 0.000000 0.000001
vn 1.000000 0.000002 0.000000
vn 1.000000 0.000002 0.000000
vn 1.000000 0.000002 0.000000
vn 1.000000 0.000002 0.000000
vn 1.000000 0.000002 0.000000
vn 1.000000 0.000002 0.000000
vn 1.000000 0.000002 0.000000
vn 1.000000 -0.000001 0.000001
vn 1.000000 0.000002 0.000000
vn 1.000000 0.000002 0.000000
vn 1.000000 -0.000001 0.000001
vn 1.000000 -0.000001 0.000001
vn 1.000000 -0.000001 0.000001
vn 1.000000 -0.000001 0.000001
vn 1.000000 0.000001 0.000000
vn 1.000000 0.000001 0.000000
vn 1.000000 -0.000001 0.000001
vn 1.000000 0.000002 0.000000
vn 1.000000 0.000000 0.000000
vn 1.000000 -0.000000 0.000000
vn 1.000000 0.000000 0.000000
vn 1.000000 0.000000 0.000000
vn 1.000000 0.000000 0.000000
vn 1.000000 -0.000000 0.000000
vn 0.388580 0.493949 0.777830
vn 0.011964 0.480889 0.876700
vn 0.006267 0.306998 0.951689
vn 1.000000 0.000002 0.000000
vn 1.000000 0.000001 0.000000
vn 1.000000 0.000001 0.000000
vn 0.285590 -0.513745 -0.809014
vn 0.254123 -0.548659 -0.796489
vn 0.262461 -0.539598 -0.799968
vn 0.262461 -0.539598 -0.799968
vn 0.254123 -0.548659 -0.796489
vn 0.225124 -0.579140 -0.783528
vn -0.128612 0.330858 -0.934875
vn -0.036858 0.346574 -0.937298
vn -0.121081 0.332264 -0.935382
vn -0.121081 0.332264 -0.935382
vn -0.036858 0.346574 -0.937298
vn -0.027070 0.348070 -0.937078
vn 0.182354 -0.328033 0.926899
vn 0.174485 -0.329606 0.927855
vn 0.071868 -0.347973 0.934746
vn 0.071868 -0.347973 0.934746
vn 0.174485 -0.329606 0.927855
vn 0.061122 -0.349670 0.934877
vn 0.382266 0.743461 -0.548761
vn 0.370909 0.747618 -0.550903
vn -0.044474 0.818751 -0.572424
vn -0.044474 0.818751 -0.572424
vn 0.370909 0.747618 -0.550903
vn -0.063654 0.818517 -0.570945
vn -0.267378 -0.775273 0.572242
vn 0.124536 -0.811996 0.570223
vn -0.254913 -0.778452 0.573613
vn -0.254913 -0.778452 0.573613
vn 0.124536 -0.811996 0.570223
vn 0.141709 -0.810696 0.568059
vn 0.190372 0.961406 0.198638
vn 0.190372 0.961406 0.198638
vn 0.190372 0.961406 0.198638
vn 0.190372 0.961406 0.198638
vn -0.023765 -0.978822 -0.203328
vn -0.023765 -0.978822 -0.203328
vn -0.023765 -0.978822 -0.203328
vn -0.023765 -0.978822 -0.203328
vn 0.012160 0.571573 -0.820461
vn 0.041289 0.648979 -0.759685
vn 0.036528 0.634258 -0.772258
vn 0.012160 0.571573 -0.820461
vn 0.163206 -0.550763 0.818550
vn 0.144318 -0.555418 0.818953
vn -0.020442 -0.579996 0.814363
vn -0.020442 -0.579996 0.814363
vn 0.144318 -0.555418 0.818953
vn -0.034358 -0.584091 0.810960
vn 0.117954 0.855731 -0.503797
vn 0.122345 0.854365 -0.505067
vn 0.041289 0.648979 -0.759685
vn 0.041289 0.648979 -0.759685
vn 0.122345 0.854365 -0.505067
vn 0.036528 0.634258 -0.772258
vn -0.076722 -0.556603 0.827228
vn -0.020442 -0.579996 0.814363
vn -0.066586 -0.560642 0.825377
vn -0.066586 -0.560642 0.825377
vn -0.020442 -0.579996 0.814363
vn -0.034358 -0.584091 0.810960
vn 1.000000 -0.000000 0.000000
vn 1.000000 0.000000 0.000000
vn 1.000000 -0.000000 0.000000
vn 1.000000 -0.000000 0.000000
vn 1.000000 0.000000 0.000000
vn 1.000000 0.000000 0.000000
vn 1.000000 -0.000000 0.000000
vn 1.000000 0.000000 0.000000
vn 1.000000 0.000000 0.000000
vn 1.000000 0.000000 0.000000
vn 1.000000 0.000000 0.000000
vn 1.000000 0.000000 0.000000
vn 1.000000 0.000000 0.000000
vn 1.000000 0.000000 0.000000
vn 1.000000 -0.000000 0.000000
vn 1.000000 -0.000000 0.000000
vn 1.000000 0.000000 0.000000
vn 1.000000 0.000000 0.000000
vn 1.000000 0.000000 0.000000
vn 1.000000 0.000000 0.000000
vn 1.000000 0.000000 0.000000
vn 1.000000 -0.000000 0.000000
vn 1.000000 0.000000 0.000000
vn 1.000000 -0.000000 0.000000
vn 1.000000 0.000000 0.000000
vn 1.000000 0.000000 0.000000
vn 1.000000 -0.000000 0.000000
vn 1.000000 0.000000 0.000000
vn 1.000000 -0.000000 0.000000
vn 1.000000 -0.000000 0.000000
vn 1.000000 -0.000000 0.000000
vn 1.000000 -0.000000 0.000000
vn 1.000000 0.000000 0.000000
vn 1.000000 -0.000000 0.000000
vn 1.000000 -0.000000 0.000000
vn 1.000000 0.000000 0.000000
vn 1.000000 -0.000000 0.000000
vn 1.000000 -0.000000 0.000000
vn 1.000000 -0.000000 0.000000
vn 1.000000 0.000000 0.000000
vn 1.000000 -0.000000 0.000000
vn 1.000000 0.000000 0.000000
vn 1.000000 0.000000 0.000000
vn 1.000000 -0.000000 0.000000
vn 1.000000 -0.000000 0.000000
vn 1.000000 0.000000 0.000000
vn 1.000000 -0.000000 0.000000
vn 1.000000 -0.000000 0.000000
vn 1.000000 -0.000000 0.000000
vn 1.000000 0.000000 0.000000
vn 1.000000 -0.000000 0.000000
vn 1.000000 -0.000000 0.000000
s off
g polySurface21 Porta_distrutta_presente:pCube26
usemtl initialShadingGroup
f 1/1/1 2/2/2 9/3/3 6/4/4
f 5/5/5 8/6/6 14/7/7
f 14/7/8 8/6/9 18/8/10
f 17/9/11 19/10/12 4/11/13 3/12/14
f 3/12/15 4/11/16 2/13/17 1/14/18
f 13/15/19 45/16/20 11/17/21
f 11/17/22 45/16/23 5/5/24
f 5/5/25 45/16/26 8/6/27
f 12/18/28 10/19/29 22/20/30
f 22/20/31 10/19/32 23/21/33
f 10/19/34 7/22/35 23/21/36
f 9/3/37 24/23/38 6/4/39
f 7/22/40 6/4/41 23/21/42
f 6/4/43 24/23/44 23/21/45
f 11/17/46 10/19/47 13/15/48
f 13/15/49 10/19/50 12/18/51
f 17/9/52 16/24/53 20/25/54 19/10/55
f 16/24/56 15/26/57 21/27/58 20/25/59
f 15/26/60 14/7/61 18/8/62 21/27/63
f 7/22/64 3/28/65 6/4/66
f 3/28/67 1/1/68 6/4/69
f 3/28/70 11/29/71 5/30/72
f 3/28/73 7/22/74 10/19/75 11/29/76
f 3/28/77 14/31/78 15/32/79
f 3/28/80 5/30/81 14/31/82
f 3/28/83 15/32/84 16/33/85 17/34/86
f 34/35/87 35/36/88 36/37/89 37/38/90
f 37/38/91 36/37/92 38/39/93 39/40/94
f 38/39/95 40/41/96 39/40/97
f 39/40/98 40/41/99 41/42/100
f 41/42/101 40/41/102 43/43/103
f 43/43/104 40/41/105 42/44/106
f 21/45/107 29/46/108 33/47/109
f 4/48/110 32/49/111 2/2/112
f 22/20/113 23/21/114 24/23/115
f 42/44/116 44/50/117 43/43/118
f 22/20/119 24/23/120 34/35/121
f 34/35/122 24/23/123 35/36/124
f 24/23/125 26/51/126 35/36/127
f 35/36/128 26/51/129 36/37/130
f 22/20/131 34/35/132 25/52/133
f 25/52/134 34/35/135 37/38/136
f 28/53/137 38/39/138 26/51/139
f 26/51/140 38/39/141 36/37/142
f 27/54/143 25/52/144 39/40/145
f 39/40/146 25/52/147 37/38/148
f 28/53/149 30/55/150 40/41/151 38/39/152
f 29/46/153 27/54/154 39/40/155 41/42/156
f 30/55/157 31/56/158 42/44/159 40/41/160
f 29/46/161 41/42/162 33/47/163
f 33/47/164 41/42/165 43/43/166
f 32/49/167 44/50/168 31/56/169
f 31/56/170 44/50/171 42/44/172
f 32/49/173 33/47/174 44/50/175
f 44/50/176 33/47/177 43/43/178
f 2/2/179 31/56/180 28/53/181
f 28/53/182 31/56/183 30/55/184
f 2/2/185 32/49/186 31/56/187
f 21/45/188 33/47/189 20/57/190
f 20/57/191 33/47/192 19/58/193
f 19/58/194 33/47/195 4/48/196
f 33/47/197 32/49/198 4/48/199
f 29/46/200 8/59/201 27/54/202
f 18/60/203 8/59/204 29/46/205 21/45/206
f 27/54/207 45/61/208 25/52/209
f 27/54/210 8/59/211 45/61/212
f 45/61/213 13/62/214 25/52/215
f 22/20/216 25/52/217 12/18/218
f 25/52/219 13/62/220 12/18/221
f 2/2/222 26/51/223 9/3/224
f 2/2/225 28/53/226 26/51/227
f 9/3/228 26/51/229 24/23/230
